<svg width="241" height="120" viewBox="0 0 241 120" fill="none" xmlns="http://www.w3.org/2000/svg">
<path d="M188.446 23.0332V31.8402H173.441V10.2994H188.446V18.0687H240.896V0.145996H126.404V41.4607H240.896V23.0332H188.446Z" fill="black"/>
<path d="M67.5305 39.5534H52.5248V11.0006H67.5305V34.5889H121.439V0.145996H0.215332V49.847H52.5248H55.9467H67.5305V78.3999H52.5248V54.8396H0.215332V89.2264H121.439V39.5534H67.5305Z" fill="black"/>
<path d="M240.896 46.4253H126.404V89.2265H240.896V72.1173L229.453 67.8259L240.896 63.4785V46.4253ZM188.446 78.1756H173.441V70.9392H188.446V78.1756ZM188.446 63.787H173.441V56.5506H188.446V63.787Z" fill="black"/>
<path d="M3.4412 109.757C3.60949 109.897 4.33873 110.458 5.03993 110.851C7.50816 112.141 10.6215 112.197 11.3507 112.197C14.436 112.197 16.9603 111.412 16.9603 109.645C16.9603 109.224 16.792 108.607 15.9506 108.186C14.5763 107.457 11.6032 107.541 7.76059 107.121C6.44233 106.98 4.92774 106.728 3.74973 105.886C2.7961 105.185 2.26318 104.091 2.26318 102.857C2.26318 101.118 3.27291 99.772 4.7875 98.9867C6.97525 97.8648 10.6776 97.8647 11.0142 97.8647C13.4543 97.8647 16.0347 98.2855 18.2225 99.4354C19.2883 100.024 19.7651 100.389 20.1578 100.782L17.4932 102.268C14.9128 100.501 11.7715 100.417 10.7898 100.417C8.57398 100.417 7.17158 100.726 6.33014 101.343C5.74113 101.791 5.65699 102.212 5.65699 102.577C5.65699 102.857 5.79723 103.446 6.44233 103.811C7.53621 104.456 10.5093 104.54 13.819 104.849C16.2311 105.045 17.4091 105.297 18.3908 105.943C19.6249 106.756 20.2419 108.046 20.2419 109.449C20.2419 109.813 20.2139 110.739 19.7371 111.608C17.9981 114.694 12.8934 114.778 11.5751 114.778C9.97638 114.778 4.42288 114.694 0.804688 111.496L3.4412 109.757Z" fill="black"/>
<path d="M53.6194 114.188V105.83C53.6194 104.933 53.5913 103.979 53.1987 103.166C52.6938 102.044 51.1231 100.697 48.2061 100.697C44.9526 100.697 43.0173 102.268 42.4002 103.446C42.0917 104.063 41.9514 104.652 41.9514 106.026V114.216H38.8942V106.139C38.8942 105.353 38.8661 104.568 38.6698 103.811C37.8284 100.753 34.4065 100.725 33.6773 100.725C31.7139 100.725 28.853 101.623 27.7591 103.586C27.3104 104.428 27.3104 105.269 27.3104 106.223V114.216H24.2251V98.4815H27.3104V100.641C28.3482 99.5193 30.6761 98.1169 34.2663 98.1169C36.7065 98.1169 39.6234 98.9023 40.9137 100.978C41.6429 100.164 43.7465 98.0889 48.5427 98.0889C51.4877 98.0889 55.0498 99.1547 56.2559 102.156C56.6205 103.053 56.7047 103.839 56.7047 105.746V114.216H53.6194V114.188Z" fill="black"/>
<path d="M78.554 114.356C75.8894 114.356 75.665 112.842 75.5248 111.692C74.9358 112.842 72.6639 114.777 67.9518 114.777C61.9495 114.777 60.5752 111.552 60.5752 109.364C60.5752 106.643 62.5105 105.493 63.3519 105.129C64.8665 104.455 67.3067 104.399 71.009 104.399H75.4967V104.007C75.4967 102.071 75.4687 100.192 70.2798 100.192C67.9238 100.192 65.3714 100.613 64.6982 102.268L61.613 101.987C61.641 101.847 61.9495 101.034 62.3142 100.445C62.9312 99.547 64.2775 98.0044 70.1115 98.0044C70.5603 98.0044 72.7761 98.0324 74.5992 98.4812C75.0199 98.5654 76.6747 98.93 77.6003 100.192C78.3857 101.23 78.3857 102.296 78.3857 103.474V109.757C78.3857 111.552 78.6661 112.169 80.1527 112.169C80.4332 112.169 81.2746 112.084 81.2746 112.084V114.216C80.349 114.272 79.4515 114.356 78.554 114.356ZM69.7469 106.755C66.6616 106.755 63.6324 106.755 63.6324 109.336C63.6324 110.878 65.0629 112.421 68.1762 112.421C70.0274 112.421 73.5053 112 74.9358 109.336C75.5248 108.242 75.4967 107.204 75.5248 106.755H69.7469Z" fill="black"/>
<path d="M87.0521 98.482V100.249C87.2765 100.025 89.2118 98.0332 93.1104 98.0332C94.008 98.0332 94.5409 98.2015 94.9055 98.2856V101.287C94.3165 101.09 93.5873 100.922 92.3531 100.922C91.1471 100.922 87.024 101.006 87.024 105.438V114.217H83.9668V98.482H87.0521V98.482Z" fill="black"/>
<path d="M100.796 100.557V108.972C100.796 110.963 101.076 111.72 102.983 111.72C103.937 111.72 104.919 111.524 105.199 111.496V114.216C104.189 114.357 103.18 114.441 102.142 114.441C100.992 114.441 99.5895 114.301 98.692 113.431C97.9066 112.646 97.7944 111.832 97.7944 109.841V100.557H95.1299V98.4535H97.8786V93.0122H100.908V98.4535H105.283V100.557H100.796Z" fill="black"/>
<path d="M137.707 110.01C136.221 112.871 132.995 114.75 128.143 114.75C122 114.75 117.765 111.945 117.765 106.251C117.765 100.922 122.337 98.0332 128.227 98.0332C133.135 98.0332 136.193 100.109 137.539 102.801L134.594 103.643C133.5 101.679 131.284 100.445 128.199 100.445C124.497 100.445 120.991 102.437 120.991 106.504C120.991 110.739 125.058 112.31 128.227 112.31C131.396 112.31 133.724 111.019 134.734 109.252L137.707 110.01Z" fill="black"/>
<path d="M140.988 95.8167V92.7314H144.017V95.8167H140.988ZM141.016 114.188V98.4532H144.074V114.188H141.016Z" fill="black"/>
<path d="M152.488 100.557V108.972C152.488 110.963 152.769 111.72 154.676 111.72C155.63 111.72 156.612 111.524 156.892 111.496V114.216C155.882 114.357 154.873 114.441 153.835 114.441C152.685 114.441 151.282 114.301 150.385 113.431C149.6 112.646 149.487 111.832 149.487 109.841V100.557H146.823V98.4535H149.571V93.0122H152.601V98.4535H156.976V100.557H152.488Z" fill="black"/>
<path d="M176.75 98.4538L167.859 115.731C166.793 117.807 165.643 119.686 161.969 119.686C160.51 119.686 158.659 119.35 158.294 119.293V116.517C159.893 116.881 160.735 116.994 161.52 116.994C163.427 116.994 164.269 116.264 165.334 114.273L157.341 98.4258H160.819L166.961 111.132L173.328 98.4258H176.75V98.4538Z" fill="black"/>
<path d="M193.074 91.4414V100.305C194.308 99.1827 196.692 98.0046 199.918 98.0046C205.303 98.0046 209.51 101.174 209.51 106.279C209.51 107.092 209.37 109.476 207.799 111.412C206.649 112.842 204.293 114.609 199.946 114.609C196.075 114.609 194.056 113.319 193.074 112.421V114.188H190.017V91.4414H193.074ZM199.637 100.473C193.775 100.473 192.878 104.848 192.878 106.475C192.878 109.925 195.654 112.085 199.749 112.085C202.47 112.085 206.341 110.738 206.341 106.391C206.341 103.362 203.9 100.473 199.637 100.473Z" fill="black"/>
<path d="M213.437 95.8167V92.7314H216.466V95.8167H213.437ZM213.465 114.188V98.4532H216.522V114.188H213.465Z" fill="black"/>
<path d="M236.913 114.189V105.887C236.913 104.54 236.773 103.951 236.493 103.306C235.904 101.96 234.305 100.642 231.079 100.642C228.779 100.642 226.031 101.371 224.993 103.951C224.628 104.849 224.6 105.746 224.6 106.728V114.217H221.543V98.482H224.6V100.389C225.161 99.9405 225.722 99.3795 226.984 98.8746C227.91 98.482 229.424 98.0332 231.612 98.0332C235.511 98.0332 238.372 99.6039 239.41 101.96C239.914 103.194 239.914 104.4 239.914 105.69V114.189H236.913V114.189Z" fill="black"/>
</svg>
