<svg width="141" height="141" viewBox="0 0 141 141" fill="none" xmlns="http://www.w3.org/2000/svg">
<path d="M70.2162 22.0058L77.3124 0.958008L80.2936 23.0664L91.4866 3.90214L89.932 26.1935L105.341 10.0647L98.7018 31.2588L117.019 18.5862L106.228 38.034L126.904 29.6222L112.19 46.2355L134.311 42.5965L116.305 55.4885L138.646 56.2657L118.418 65.3998L140.091 70.4652L118.418 75.5306L138.518 85.2407L116.305 85.4328L134.137 98.6997L112.19 94.6858L126.602 111.729L106.228 102.887L116.927 122.417L98.7018 109.662L105.24 130.921L89.932 114.728L91.4135 137.047L80.2936 117.855L77.7056 139.927L70.2162 118.915L63.0285 140.329L60.1387 117.855L49.1103 137.074L50.5003 114.728L35.4847 131.094L41.7305 109.662L23.6607 122.564L34.2045 102.887L13.6107 111.418L28.2422 94.6858L6.49615 99.1477L24.1271 85.4328L1.99698 85.643L22.0146 75.5306L0.341797 70.4652L22.0146 65.3998L1.85981 55.9457L24.1271 55.4885L6.39556 41.9839L28.2422 46.2355L13.4918 29.6679L34.2045 38.034L23.0206 18.9428L41.7305 31.2588L35.2287 9.98242L50.5003 26.1935L48.7262 3.96615L60.1387 23.0664L62.9827 0.96716L70.2162 22.0058Z" fill="#0165FF"/>
</svg>
