<svg width="162" height="162" viewBox="0 0 162 162" fill="none" xmlns="http://www.w3.org/2000/svg">
<path d="M80.6863 24.7016L88.8734 0.416992L92.3041 25.91L105.248 3.80828L103.415 29.5352L121.193 10.9027L113.552 35.3432L134.682 20.7646L122.245 43.1782L146.066 33.4722L129.107 52.6114L154.604 48.4406L133.863 63.292L159.594 64.1886L136.28 74.7132L161.27 80.5602L136.28 86.4073L159.477 97.5946L133.863 97.8285L154.409 113.148L129.107 108.509L145.715 128.155L122.245 117.981L134.565 140.473L113.552 125.777L121.076 150.296L103.415 131.624L105.131 157.351L92.3041 135.249L89.3412 160.664L80.6863 136.458L72.4212 161.132L69.0684 135.249L56.359 157.39L57.9574 131.624L40.6476 150.491L47.86 125.777L27.0024 140.668L39.1661 117.981L15.4236 127.804L32.3046 108.509L7.19752 113.654L27.5482 97.8285L2.01237 98.0623L25.1311 86.4073L0.102051 80.5602L25.1311 74.7132L1.85642 63.8377L27.5482 63.292L7.11954 47.7389L32.3046 52.6114L15.2676 33.5112L39.1661 43.1782L26.2617 21.1544L47.86 35.3432L40.3357 10.8247L57.9574 29.5352L55.9301 3.88623L69.0684 25.91L72.3433 0.416992L80.6863 24.7016Z" fill="black"/>
</svg>
