<svg width="162" height="162" viewBox="0 0 162 162" fill="none" xmlns="http://www.w3.org/2000/svg">
<path d="M81.2073 25.2231L89.3943 0.938477L92.8251 26.4315L105.769 4.32976L103.936 30.0567L121.714 11.4242L114.073 35.8647L135.203 21.2861L122.766 43.6997L146.587 33.9937L129.628 53.1329L155.125 48.962L134.384 63.8135L160.115 64.71L136.801 75.2347L161.791 81.0817L136.801 86.9287L159.998 98.1161L134.384 98.3499L154.93 113.669L129.628 109.031L146.236 128.677L122.766 118.503L135.086 140.994L114.073 126.299L121.597 150.817L103.936 132.146L105.652 157.873L92.8251 135.771L89.8622 161.186L81.2073 136.979L72.9422 161.654L69.5894 135.771L56.88 157.912L58.4784 132.146L41.1686 151.012L48.381 126.299L27.5234 141.189L39.6871 118.503L15.9446 128.326L32.8255 109.031L7.71851 114.176L28.0692 98.3499L2.53336 98.5838L25.6521 86.9287L0.623047 81.0817L25.6521 75.2347L2.37742 64.3592L28.0692 63.8135L7.64054 48.2604L32.8255 53.1329L15.7886 34.0327L39.6871 43.6997L26.7827 21.6759L48.381 35.8647L40.8567 11.3462L58.4784 30.0567L56.4511 4.40771L69.5894 26.4315L72.8643 0.938477L81.2073 25.2231Z" fill="black"/>
</svg>
