<svg width="135" height="134" viewBox="0 0 135 134" fill="none" xmlns="http://www.w3.org/2000/svg">
<path d="M67.7299 20.8075L74.5167 0.677734L77.3678 21.8219L88.0726 3.49346L86.5859 24.8125L101.323 9.38722L94.9731 29.6569L112.491 17.5371L102.171 36.1366L121.945 28.0917L107.873 43.9803L129.029 40.5001L111.809 52.8298L133.175 53.573L113.829 62.3088L134.557 67.1532L113.829 71.9976L133.052 81.2843L111.809 81.4679L128.863 94.1561L107.873 90.3173L121.656 106.617L102.171 98.1611L112.403 116.839L94.9731 104.641L101.226 124.972L86.5859 109.485L88.0027 130.83L77.3678 112.476L74.8927 133.585L67.7299 113.49L60.8557 133.97L58.0921 112.476L47.5446 130.857L48.874 109.485L34.5134 125.138L40.4868 104.641L23.2051 116.979L33.289 98.1611L13.5935 106.32L27.5867 90.3173L6.78924 94.5846L23.6511 81.4679L2.48631 81.669L21.6309 71.9976L0.90332 67.1532L21.6309 62.3088L2.35512 53.267L23.6511 52.8298L6.69304 39.9142L27.5867 43.9803L13.4798 28.1354L33.289 36.1366L22.5929 17.8781L40.4868 29.6569L34.2685 9.30852L48.874 24.8125L47.1773 3.55467L58.0921 21.8219L60.812 0.686487L67.7299 20.8075Z" fill="#0165FF"/>
</svg>
