<svg width="323" height="325" viewBox="0 0 323 325" fill="none" xmlns="http://www.w3.org/2000/svg">
<path d="M0.0703125 153.354L3.46031 127.604L41.8203 132.664L41.0903 138.184L7.98031 133.824L6.04031 148.534L39.1503 152.894L38.4203 158.414L0.0703125 153.354Z" fill="white"/>
<path d="M7.73047 112.184L12.9805 99.1539C15.5505 92.7639 21.6205 89.7739 27.7605 92.2539C33.9005 94.7339 36.2005 101.084 33.6305 107.474L30.4605 115.344L45.7005 121.484L43.6205 126.644L7.73047 112.184ZM28.8105 105.244C30.0005 102.294 29.3705 98.8939 25.6805 97.4139C21.9905 95.9239 19.1805 97.9439 17.9905 100.884L14.7205 108.994L25.5405 113.354L28.8105 105.244Z" fill="white"/>
<path d="M34.2601 61.244C41.2701 52.404 54.0701 50.914 62.9201 57.924C71.7701 64.934 73.2501 77.744 66.2401 86.584C59.2301 95.434 46.4201 96.914 37.5801 89.904C28.7301 82.904 27.2501 70.094 34.2601 61.244ZM62.0801 83.304C67.5101 76.454 66.2801 67.764 59.4701 62.364C52.5801 56.904 43.8401 57.684 38.4101 64.534C32.9801 71.384 34.1801 80.114 41.0701 85.574C47.8801 90.984 56.6501 90.154 62.0801 83.304Z" fill="white"/>
<path d="M74.5605 26.023L90.3505 37.723L88.3405 18.083L93.6205 15.043L97.7705 57.293L92.6305 60.253L91.0605 44.893L69.2705 29.063L74.5605 26.023Z" fill="white"/>
<path d="M136.031 2.46406L143.781 0.664062L152.521 38.3541L147.151 39.6041L140.091 9.19406L134.591 33.8141L128.391 35.2541L112.611 15.5741L119.671 45.9841L114.301 47.2341L105.561 9.54406L113.311 7.74406L130.251 29.1741L136.031 2.46406Z" fill="white"/>
<path d="M181.971 2.14336L187.521 2.60336L184.301 41.1534L178.761 40.6934L180.171 23.7934L165.381 22.5534L163.971 39.4534L158.431 38.9934L161.641 0.443359L167.191 0.903359L165.821 17.2734L180.611 18.5034L181.971 2.14336Z" fill="white"/>
<path d="M205.64 7.04398L207.29 26.634L220.71 12.154L226.48 14.114L197.49 45.144L191.87 43.234L202.37 31.904L199.87 5.08398L205.64 7.04398Z" fill="white"/>
<path d="M218.57 45.513L219.29 46.053L236.23 23.643L235.51 23.103L238.71 18.873L244.63 23.343L241.43 27.573L240.67 26.993L233.96 35.873L238.27 39.133C245.25 31.923 255.8 30.453 263.7 36.433C272.37 42.983 273.32 55.003 266.45 64.093C259.58 73.183 247.76 75.543 239.09 68.993C231.01 62.883 229.71 52.133 235.03 43.333L230.76 40.103L223.73 49.403L224.49 49.983L221.29 54.213L215.37 49.733L218.57 45.513ZM242.28 64.773C248.83 69.723 257.01 67.273 261.93 60.753C266.92 54.153 267.06 45.623 260.5 40.673C253.94 35.723 245.77 38.173 240.79 44.773C235.87 51.283 235.73 59.823 242.28 64.773Z" fill="white"/>
<path d="M296.531 74.5625L308.391 95.8625L303.761 98.4425L294.611 82.0025L265.431 98.2425L262.721 93.3825L296.531 74.5625Z" fill="white"/>
<path d="M317.88 121.863C320.65 132.803 314.05 143.883 303.11 146.653C292.17 149.423 281.09 142.823 278.32 131.873C275.55 120.923 282.15 109.853 293.09 107.083C304.04 104.323 315.11 110.923 317.88 121.863ZM283.46 130.573C285.61 139.053 293.25 143.343 301.68 141.213C310.21 139.053 314.89 131.633 312.75 123.163C310.6 114.683 302.94 110.333 294.42 112.493C285.98 114.623 281.31 122.093 283.46 130.573Z" fill="white"/>
<path d="M322.091 157.024L321.511 171.054C321.221 177.934 316.511 182.784 309.901 182.504C303.281 182.224 298.991 177.014 299.281 170.124L299.631 161.654L283.221 160.974L283.451 155.414L322.091 157.024ZM304.561 170.614C304.431 173.794 306.161 176.784 310.131 176.944C314.101 177.104 316.081 174.274 316.211 171.094L316.571 162.354L304.921 161.874L304.561 170.614Z" fill="white"/>
<path d="M314.181 213.923C310.531 224.603 298.961 230.293 288.281 226.643C277.601 222.993 271.911 211.423 275.561 200.743C279.211 190.063 290.781 184.373 301.461 188.023C312.141 191.673 317.821 203.243 314.181 213.923ZM280.571 202.453C277.751 210.733 281.811 218.503 290.041 221.313C298.371 224.153 306.341 220.493 309.161 212.213C311.981 203.933 307.931 196.113 299.611 193.273C291.391 190.463 283.401 194.173 280.571 202.453Z" fill="white"/>
<path d="M297.651 247.062L283.311 266.783L256.311 247.143L253.821 250.573L243.101 242.783L246.371 238.283L252.801 242.963L267.141 223.243L260.711 218.562L263.981 214.062L274.701 221.853L273.201 223.913C271.771 226.153 272.061 228.452 274.501 230.232L297.651 247.062ZM259.581 242.643L282.301 259.163L290.251 248.232L271.821 234.823C270.151 233.603 269.121 231.873 268.751 230.033L259.581 242.643Z" fill="white"/>
<path d="M258.37 290.884C253.77 294.464 247.54 295.944 241.68 294.454L242.33 289.244C246.7 290.544 250.96 289.984 254.94 286.894C262.06 281.364 262.34 272.754 257.11 266.014C251.87 259.274 243.46 257.424 236.13 263.114C232.15 266.204 230.56 270.194 230.74 274.754L225.53 274.104C225.53 268.064 228.51 262.394 233.12 258.814C242.33 251.664 254.55 253.574 261.51 262.534C268.51 271.534 267.37 283.894 258.37 290.884Z" fill="white"/>
<path d="M208.43 315.974L216.6 292.014L193.17 280.414L199.73 277.704L219.28 287.404L213.01 272.224L218.15 270.104L232.92 305.864L227.78 307.984L221.71 293.294L214.56 313.444L208.43 315.974Z" fill="white"/>
<path d="M194.17 319.094L183.55 302.554L178.47 321.624L172.45 322.594L183.55 281.604L189.41 280.654L185.43 295.574L200.18 318.104L194.17 319.094Z" fill="white"/>
<path d="M164.72 291.143L163.83 291.003L159.41 318.743L160.3 318.883L159.47 324.113L152.14 322.943L152.97 317.713L153.91 317.863L155.66 306.873L150.32 306.023C147.55 315.673 138.93 321.923 129.15 320.363C118.42 318.653 111.93 308.503 113.73 297.243C115.52 285.993 124.84 278.353 135.57 280.063C145.57 281.653 151.77 290.533 151.21 300.803L156.5 301.643L158.33 290.133L157.39 289.983L158.22 284.753L165.55 285.923L164.72 291.143ZM134.74 285.293C126.63 284.003 120.57 290.013 119.29 298.073C117.99 306.233 121.88 313.833 129.99 315.123C138.1 316.413 144.16 310.403 145.46 302.233C146.74 294.183 142.85 286.593 134.74 285.293Z" fill="white"/>
<path d="M66.7007 291.923L71.8107 272.943L54.2707 282.003L49.5107 278.203L87.3207 258.873L91.9607 262.573L78.2307 269.653L71.4607 295.723L66.7007 291.923Z" fill="white"/>
<path d="M41.9608 270.093L33.2608 259.073C28.9908 253.663 29.4108 246.923 34.6108 242.823C39.8108 238.713 46.4608 239.883 50.7308 245.283L55.9808 251.943L68.8708 241.763L72.3208 246.133L41.9608 270.093ZM46.4108 248.363C44.4408 245.863 41.1808 244.733 38.0608 247.193C34.9408 249.653 35.2908 253.093 37.2608 255.593L42.6808 262.453L51.8308 255.233L46.4108 248.363Z" fill="white"/>
<path d="M11.1399 220.003L8.87988 214.913L44.2499 199.223L46.5099 204.313L31.0099 211.193L37.0299 224.753L52.5299 217.873L54.7899 222.963L19.4199 238.663L17.1599 233.573L32.1799 226.903L26.1599 213.333L11.1399 220.003Z" fill="white"/>
<path d="M4.10078 196.892L20.4908 186.052L1.35078 181.232L0.300781 175.232L41.4308 185.762L42.4608 191.612L27.4808 187.842L5.15078 202.892L4.10078 196.892Z" fill="white"/>
<path d="M161.08 189.573C176.506 189.573 189.01 177.068 189.01 161.643C189.01 146.218 176.506 133.713 161.08 133.713C145.655 133.713 133.15 146.218 133.15 161.643C133.15 177.068 145.655 189.573 161.08 189.573Z" fill="white"/>
</svg>
