<svg width="250" height="250" viewBox="0 0 250 250" fill="none" xmlns="http://www.w3.org/2000/svg">
<path d="M124.727 38.2496L137.384 0.702148L142.702 40.1417L162.666 5.95423L159.893 45.72L187.377 16.9477L175.535 54.7562L208.206 32.1494L188.959 66.8425L225.838 51.8365L199.594 81.4733L239.05 74.9816L206.934 97.9798L246.781 99.3662L210.701 115.661L249.358 124.697L210.701 133.733L246.553 151.055L206.934 151.398L238.74 175.065L199.594 167.904L225.3 198.308L188.959 182.535L208.043 217.375L175.535 194.621L187.197 232.544L159.893 203.658L162.536 243.472L142.702 209.236L138.086 248.61L124.727 211.128L111.907 249.328L106.753 209.236L87.0817 243.521L89.561 203.658L62.7786 232.854L73.9189 194.621L41.6888 217.636L60.4951 182.535L23.7632 197.753L49.8605 167.904L11.0734 175.864L42.5206 151.398L3.04845 151.773L38.7528 133.733L0.0961914 124.697L38.7528 115.661L2.80379 98.7954L42.5206 97.9798L10.8939 73.8887L49.8605 81.4733L23.5511 51.9181L60.4951 66.8425L40.547 32.7855L73.9189 54.7562L62.3219 16.8009L89.561 45.72L86.3967 6.06842L106.753 40.1417L111.825 0.718475L124.727 38.2496Z" fill="#0165FF"/>
</svg>
