<svg width="119" height="118" viewBox="0 0 119 118" fill="none" xmlns="http://www.w3.org/2000/svg">
<path d="M59.207 18.0312L65.1767 0.333984L67.6887 18.9283L77.1163 2.79693L75.7951 21.5707L88.7622 7.98376L83.1839 25.8278L98.5976 15.1605L89.5125 31.5366L106.916 24.4414L94.5199 38.4197L113.147 35.3696L97.9941 46.2163L116.784 46.8687L99.772 54.5511L118.007 58.8082L99.772 63.0817L116.686 71.2534L97.9941 71.4165L113 82.5731L94.5199 79.1968L106.655 93.5503L89.5125 86.0962L98.516 102.538L83.1839 91.805L88.6807 109.698L75.7951 96.0621L77.051 114.852L67.6887 98.7045L65.5193 117.266L59.207 99.5853L53.172 117.609L50.7417 98.7045L41.4609 114.868L42.6352 96.0621L29.9943 109.845L35.2464 91.805L20.0448 102.652L28.9178 86.0962L11.5794 93.2893L23.8941 79.1968L5.5934 82.9645L20.4362 71.4165L1.82561 71.5959L18.6583 63.0817L0.422852 58.8082L18.6583 54.5511L1.69509 46.5914L20.4362 46.2163L5.51182 34.8477L23.8941 38.4197L11.4816 24.4903L28.9178 31.5366L19.5065 15.4704L35.2464 25.8278L29.7824 7.91853L42.6352 21.5707L41.1346 2.86216L50.7417 18.9283L53.1231 0.333984L59.207 18.0312Z" fill="#0165FF"/>
</svg>
